<?xml version="1.0" encoding="UTF-8" standalone="no"?>
<!-- Created with Inkscape (http://www.inkscape.org/) -->

<svg
   xmlns:dc="http://purl.org/dc/elements/1.1/"
   xmlns:cc="http://creativecommons.org/ns#"
   xmlns:rdf="http://www.w3.org/1999/02/22-rdf-syntax-ns#"
   xmlns:svg="http://www.w3.org/2000/svg"
   xmlns="http://www.w3.org/2000/svg"
   xmlns:sodipodi="http://sodipodi.sourceforge.net/DTD/sodipodi-0.dtd"
   xmlns:inkscape="http://www.inkscape.org/namespaces/inkscape"
   id="svg2"
   version="1.1"
   inkscape:version="0.91 r13725"
   xml:space="preserve"
   width="29.370125"
   height="33.730499"
   viewBox="0 0 29.370125 33.730499"
   sodipodi:docname="icons1.svg"><metadata
     id="metadata8"><rdf:RDF><cc:Work
         rdf:about=""><dc:format>image/svg+xml</dc:format><dc:type
           rdf:resource="http://purl.org/dc/dcmitype/StillImage" /><dc:title></dc:title></cc:Work></rdf:RDF></metadata><defs
     id="defs6"><clipPath
       clipPathUnits="userSpaceOnUse"
       id="clipPath16"><path
         d="m 0,26.984 23.496,0 L 23.496,0 0,0 0,26.984 Z"
         id="path18"
         inkscape:connector-curvature="0" /></clipPath></defs><sodipodi:namedview
     pagecolor="#ffffff"
     bordercolor="#666666"
     borderopacity="1"
     objecttolerance="10"
     gridtolerance="10"
     guidetolerance="10"
     inkscape:pageopacity="0"
     inkscape:pageshadow="2"
     inkscape:window-width="640"
     inkscape:window-height="480"
     id="namedview4"
     showgrid="false"
     inkscape:zoom="6.9966352"
     inkscape:cx="14.685062"
     inkscape:cy="16.86525"
     inkscape:window-x="0"
     inkscape:window-y="0"
     inkscape:window-maximized="0"
     inkscape:current-layer="g10" /><g
     id="g10"
     inkscape:groupmode="layer"
     inkscape:label="Vector Smart Object1"
     transform="matrix(1.25,0,0,-1.25,0,33.7305)"><g
       id="g12"
       transform="translate(0.11434067,-0.11434068)"><g
         id="g14"
         clip-path="url(#clipPath16)"><g
           id="g20"
           transform="translate(2.4043,16.1328)"><path
             d="m 0,0 c 0.676,0.675 1.609,1.093 2.641,1.093 1.03,0 1.963,-0.418 2.638,-1.093 0.676,-0.677 1.093,-1.609 1.093,-2.639 0,-1.033 -0.417,-1.965 -1.093,-2.64 -0.675,-0.677 -1.608,-1.095 -2.638,-1.095 -1.032,0 -1.965,0.418 -2.641,1.095 -0.677,0.675 -1.094,1.607 -1.094,2.64 0,1.03 0.417,1.962 1.094,2.639 m 13.408,8.447 c 0.676,0.676 1.609,1.093 2.64,1.093 1.03,0 1.965,-0.417 2.639,-1.093 0.676,-0.676 1.094,-1.608 1.094,-2.638 0,-1.033 -0.418,-1.965 -1.094,-2.641 -0.674,-0.676 -1.609,-1.093 -2.639,-1.093 -1.031,0 -1.964,0.417 -2.64,1.093 -0.676,0.676 -1.093,1.608 -1.093,2.641 0,1.03 0.417,1.962 1.093,2.638 m 0,-16.895 c 0.676,0.676 1.609,1.093 2.641,1.093 1.029,0 1.964,-0.417 2.638,-1.093 0.676,-0.677 1.094,-1.61 1.094,-2.642 0,-1.03 -0.418,-1.962 -1.094,-2.639 -0.674,-0.675 -1.609,-1.092 -2.638,-1.092 -1.032,0 -1.965,0.417 -2.641,1.092 -0.676,0.677 -1.093,1.609 -1.093,2.639 0,1.032 0.417,1.965 1.093,2.642 m -14.334,2.242 c 0.913,-0.912 2.174,-1.478 3.567,-1.478 1.391,0 2.653,0.566 3.565,1.478 0.112,0.111 0.216,0.227 0.315,0.346 l 4.947,-3.115 c -0.298,-0.644 -0.464,-1.358 -0.464,-2.115 0,-1.391 0.565,-2.651 1.478,-3.565 0.913,-0.912 2.173,-1.478 3.567,-1.478 1.391,0 2.652,0.566 3.565,1.478 0.913,0.914 1.478,2.174 1.478,3.565 0,1.393 -0.565,2.654 -1.478,3.567 -0.913,0.913 -2.174,1.478 -3.565,1.478 -1.394,0 -2.654,-0.565 -3.567,-1.478 -0.111,-0.112 -0.218,-0.226 -0.318,-0.345 L 7.22,-4.755 c 0.298,0.645 0.463,1.359 0.463,2.116 0,0.754 -0.165,1.469 -0.463,2.113 l 4.944,3.116 c 0.1,-0.122 0.207,-0.236 0.318,-0.348 0.913,-0.913 2.173,-1.477 3.566,-1.477 1.391,0 2.653,0.564 3.566,1.477 0.912,0.913 1.477,2.174 1.477,3.567 0,1.391 -0.565,2.652 -1.477,3.565 -0.913,0.912 -2.175,1.478 -3.566,1.478 -1.393,0 -2.653,-0.566 -3.566,-1.478 C 11.569,8.461 11.004,7.2 11.004,5.809 c 0,-0.756 0.166,-1.471 0.464,-2.115 L 6.521,0.577 C 6.422,0.698 6.318,0.814 6.206,0.926 5.294,1.841 4.033,2.403 2.641,2.403 c -1.393,0 -2.654,-0.565 -3.567,-1.477 -0.913,-0.911 -1.478,-2.174 -1.478,-3.565 0,-1.393 0.565,-2.654 1.478,-3.567"
             style="fill:#ffffff;fill-opacity:1;fill-rule:nonzero;stroke:none"
             id="path22"
             inkscape:connector-curvature="0" /></g></g></g></g></svg>