<?xml version="1.0" encoding="UTF-8" standalone="no"?>
<!-- Created with Inkscape (http://www.inkscape.org/) -->

<svg
   xmlns:dc="http://purl.org/dc/elements/1.1/"
   xmlns:cc="http://creativecommons.org/ns#"
   xmlns:rdf="http://www.w3.org/1999/02/22-rdf-syntax-ns#"
   xmlns:svg="http://www.w3.org/2000/svg"
   xmlns="http://www.w3.org/2000/svg"
   xmlns:sodipodi="http://sodipodi.sourceforge.net/DTD/sodipodi-0.dtd"
   xmlns:inkscape="http://www.inkscape.org/namespaces/inkscape"
   id="svg2"
   version="1.1"
   inkscape:version="0.91 r13725"
   xml:space="preserve"
   width="33.602375"
   height="33.601002"
   viewBox="0 0 33.602375 33.601002"
   sodipodi:docname="icon3.svg"><metadata
     id="metadata8"><rdf:RDF><cc:Work
         rdf:about=""><dc:format>image/svg+xml</dc:format><dc:type
           rdf:resource="http://purl.org/dc/dcmitype/StillImage" /><dc:title></dc:title></cc:Work></rdf:RDF></metadata><defs
     id="defs6"><clipPath
       clipPathUnits="userSpaceOnUse"
       id="clipPath16"><path
         d="m 0,26.881 26.882,0 L 26.882,0 0,0 0,26.881 Z"
         id="path18"
         inkscape:connector-curvature="0" /></clipPath></defs><sodipodi:namedview
     pagecolor="#ffffff"
     bordercolor="#666666"
     borderopacity="1"
     objecttolerance="10"
     gridtolerance="10"
     guidetolerance="10"
     inkscape:pageopacity="0"
     inkscape:pageshadow="2"
     inkscape:window-width="640"
     inkscape:window-height="480"
     id="namedview4"
     showgrid="false"
     inkscape:zoom="7.0236001"
     inkscape:cx="16.801188"
     inkscape:cy="16.800501"
     inkscape:window-x="0"
     inkscape:window-y="0"
     inkscape:window-maximized="0"
     inkscape:current-layer="g10" /><g
     id="g10"
     inkscape:groupmode="layer"
     inkscape:label="Vector Smart Object"
     transform="matrix(1.25,0,0,-1.25,0,33.601)"><g
       id="g12"><g
         id="g14"
         clip-path="url(#clipPath16)"><g
           id="g20"
           transform="translate(25.4727,12.2641)"><path
             d="m 0,0 c 0,-0.057 -0.023,-0.11 -0.061,-0.147 l -0.001,-0.002 c -0.037,-0.037 -0.089,-0.06 -0.148,-0.06 l -2.114,0 c -0.353,0 -0.644,-0.258 -0.697,-0.596 -0.118,-0.537 -0.281,-1.056 -0.485,-1.549 l -0.001,0 c -0.216,-0.52 -0.475,-1.012 -0.773,-1.471 -0.184,-0.284 -0.137,-0.652 0.093,-0.881 l -0.002,-10e-4 1.496,-1.496 0.002,0 c 0.038,-0.04 0.059,-0.093 0.059,-0.148 0,-0.054 -0.021,-0.109 -0.058,-0.149 l -10e-4,0.001 -0.002,0 -1.662,-1.663 c -0.041,-0.041 -0.095,-0.06 -0.148,-0.06 -0.058,0 -0.11,0.019 -0.149,0.057 l -10e-4,10e-4 10e-4,0.002 -1.496,1.495 C -6.4,-6.414 -6.796,-6.393 -7.071,-6.603 -7.52,-6.89 -7.999,-7.14 -8.501,-7.349 l -0.036,-0.015 c -0.493,-0.202 -1.013,-0.363 -1.551,-0.478 -0.331,-0.07 -0.558,-0.363 -0.558,-0.688 l -0.002,0 0,-2.115 c 0,-0.057 -0.022,-0.109 -0.059,-0.148 -0.039,-0.037 -0.092,-0.061 -0.15,-0.061 l -2.351,0 c -0.057,0 -0.11,0.024 -0.147,0.06 l 0,0.001 c -0.037,0.039 -0.061,0.091 -0.061,0.148 l 0,2.115 c 0,0.352 -0.26,0.645 -0.598,0.697 -0.535,0.116 -1.051,0.28 -1.548,0.484 -0.518,0.216 -1.012,0.475 -1.473,0.774 -0.282,0.184 -0.651,0.137 -0.878,-0.093 l -0.002,0.001 -1.496,-1.495 -0.014,-0.017 c -0.039,-0.028 -0.086,-0.043 -0.135,-0.043 -0.054,0 -0.109,0.019 -0.148,0.058 l 0,0.002 -1.663,1.662 c -0.039,0.04 -0.059,0.095 -0.059,0.149 0,0.055 0.02,0.108 0.059,0.148 l 1.496,1.496 c 0.253,0.253 0.272,0.648 0.064,0.924 -0.286,0.448 -0.536,0.927 -0.745,1.43 -0.211,0.507 -0.377,1.038 -0.493,1.585 -0.069,0.331 -0.363,0.558 -0.689,0.558 l 0,0.001 -2.115,0 c -0.056,0 -0.109,0.024 -0.148,0.062 -0.037,0.039 -0.061,0.09 -0.061,0.147 l 0,2.352 c 0,0.058 0.022,0.11 0.06,0.149 l 10e-4,-0.002 c 0.039,0.039 0.092,0.063 0.148,0.063 l 2.115,0 c 0.353,0 0.645,0.259 0.696,0.596 0.117,0.535 0.282,1.052 0.486,1.547 l 0.013,0.034 c 0.211,0.504 0.466,0.986 0.76,1.44 0.183,0.282 0.138,0.65 -0.093,0.88 l 0.001,10e-4 -1.496,1.496 0,0.001 -0.015,0.015 c -0.031,0.037 -0.044,0.085 -0.044,0.133 0,0.055 0.02,0.109 0.059,0.149 l 0,-10e-4 1.663,1.662 c 0.041,0.04 0.095,0.061 0.148,0.061 0.056,0 0.111,-0.019 0.149,-0.059 l 0.002,0 -0.002,-0.002 1.496,-1.495 c 0.252,-0.253 0.65,-0.274 0.926,-0.063 0.45,0.288 0.927,0.538 1.425,0.744 l 0.002,10e-4 0,-10e-4 c 0.508,0.21 1.039,0.377 1.586,0.495 0.331,0.069 0.558,0.362 0.558,0.686 l 0.002,0 0,2.117 c 0,0.057 0.024,0.109 0.061,0.146 l 0.017,0.018 c 0.034,0.028 0.081,0.045 0.13,0.045 l 2.351,0 c 0.058,0 0.111,-0.024 0.15,-0.063 0.037,-0.037 0.059,-0.089 0.059,-0.146 l 0,-2.117 c 0,-0.352 0.26,-0.643 0.597,-0.695 0.538,-0.118 1.058,-0.281 1.552,-0.486 0.515,-0.213 1.007,-0.473 1.47,-0.772 0.283,-0.185 0.65,-0.137 0.88,0.092 l 0.001,-0.001 1.496,1.495 c 0.041,0.04 0.093,0.061 0.149,0.061 0.055,0 0.108,-0.019 0.148,-0.059 l 0,-0.002 c 0.012,-0.013 0.024,-0.024 0.037,-0.036 L -2.69,8.853 c 0.037,-0.04 0.058,-0.094 0.058,-0.148 0,-0.055 -0.021,-0.109 -0.061,-0.149 L -4.189,7.06 C -4.441,6.807 -4.462,6.412 -4.252,6.135 -3.964,5.685 -3.714,5.207 -3.507,4.709 L -3.506,4.707 -3.507,4.705 c 0.211,-0.506 0.375,-1.036 0.494,-1.584 0.07,-0.331 0.362,-0.559 0.689,-0.559 l 2.114,0 c 0.056,0 0.11,-0.024 0.148,-0.063 L -0.046,2.484 C -0.017,2.447 0,2.401 0,2.352 L 0,0 Z M 0.979,3.446 C 0.965,3.463 0.95,3.479 0.933,3.496 0.642,3.79 0.235,3.971 -0.21,3.971 l -1.563,0 C -1.891,4.408 -2.038,4.834 -2.207,5.246 L -2.21,5.245 c -0.172,0.417 -0.37,0.821 -0.593,1.209 l 1.107,1.105 c 0.315,0.315 0.473,0.731 0.473,1.146 0,0.412 -0.158,0.826 -0.473,1.141 l -0.003,0.003 -1.623,1.625 c -0.013,0.012 -0.025,0.025 -0.037,0.038 l -0.002,-0.001 0,0.001 -10e-4,0 c -0.315,0.315 -0.73,0.472 -1.141,0.472 -0.414,0 -0.83,-0.157 -1.145,-0.472 l -1.106,-1.106 c -0.39,0.222 -0.794,0.421 -1.211,0.594 -0.413,0.171 -0.838,0.317 -1.271,0.435 l 0,1.564 c 0,0.445 -0.183,0.85 -0.476,1.143 -0.292,0.293 -0.698,0.475 -1.145,0.475 l -2.351,0 c -0.419,0 -0.804,-0.164 -1.093,-0.429 -0.016,-0.015 -0.034,-0.03 -0.05,-0.046 -0.294,-0.293 -0.476,-0.697 -0.476,-1.143 l 0,-1.564 c -0.435,-0.118 -0.861,-0.264 -1.274,-0.435 -0.416,-0.174 -0.82,-0.372 -1.208,-0.595 l -1.106,1.107 -0.001,-0.001 c -0.316,0.316 -0.732,0.473 -1.144,0.473 -0.414,0 -0.829,-0.156 -1.143,-0.472 l -1.663,-1.663 0.001,-10e-4 -0.001,-0.002 c -0.316,-0.315 -0.474,-0.728 -0.474,-1.141 0,-0.394 0.144,-0.786 0.428,-1.096 0.014,-0.016 0.03,-0.033 0.046,-0.05 l 1.106,-1.106 c -0.216,-0.376 -0.409,-0.767 -0.578,-1.172 l -0.019,-0.036 c -0.168,-0.411 -0.315,-0.837 -0.434,-1.274 l -1.562,0 c -0.446,0 -0.851,-0.181 -1.143,-0.475 l 10e-4,-10e-4 -10e-4,-0.002 C -25.29,3.2 -25.473,2.797 -25.473,2.352 l 0,-2.352 c 0,-0.446 0.183,-0.85 0.477,-1.144 0.292,-0.293 0.697,-0.473 1.143,-0.473 l 1.562,0 c 0.119,-0.437 0.266,-0.863 0.434,-1.276 0.173,-0.415 0.374,-0.817 0.597,-1.208 l -1.106,-1.105 c -0.316,-0.315 -0.474,-0.73 -0.474,-1.145 0,-0.414 0.158,-0.83 0.474,-1.145 l 1.663,-1.662 10e-4,10e-4 0.001,-10e-4 c 0.314,-0.317 0.728,-0.472 1.141,-0.472 0.393,0 0.787,0.142 1.094,0.426 0.019,0.015 0.036,0.03 0.051,0.046 l 1.106,1.105 c 0.39,-0.224 0.793,-0.422 1.208,-0.593 0.412,-0.172 0.837,-0.317 1.274,-0.436 l 0,-1.563 c 0,-0.446 0.182,-0.85 0.476,-1.144 l 0,0.002 0.002,-0.002 c 0.293,-0.293 0.699,-0.475 1.141,-0.475 l 2.351,0 c 0.447,0 0.853,0.182 1.145,0.475 0.293,0.294 0.476,0.698 0.476,1.144 l 0,1.563 c 0.422,0.114 0.836,0.255 1.237,0.421 l 0.036,0.014 c 0.415,0.172 0.819,0.37 1.209,0.594 l 1.106,-1.105 0,10e-4 c 0.318,-0.316 0.733,-0.473 1.145,-0.473 0.413,0 0.828,0.155 1.144,0.472 l 1.663,1.663 -0.001,0.001 0.001,0.002 c 0.315,0.315 0.473,0.729 0.473,1.141 0,0.415 -0.158,0.83 -0.473,1.145 l -1.106,1.104 c 0.223,0.391 0.421,0.794 0.595,1.209 l -0.002,0 0.002,0.002 c 0.171,0.413 0.316,0.839 0.434,1.274 l 1.563,0 c 0.444,0 0.848,0.18 1.141,0.473 l 0.002,0.003 C 1.227,-0.848 1.409,-0.443 1.409,0 l 0,2.352 c 0,0.421 -0.163,0.806 -0.43,1.094"
             style="fill:#ffffff;fill-opacity:1;fill-rule:nonzero;stroke:none"
             id="path22"
             inkscape:connector-curvature="0" /></g><g
           id="g24"
           transform="translate(16.4239,10.0424)"><path
             d="m 0,0 c -0.763,-0.763 -1.817,-1.235 -2.982,-1.235 -1.165,0 -2.22,0.472 -2.983,1.235 -0.764,0.763 -1.236,1.817 -1.236,2.982 0,1.165 0.472,2.22 1.236,2.984 0.763,0.763 1.818,1.235 2.983,1.235 C -1.817,7.201 -0.763,6.729 0,5.966 0.765,5.202 1.236,4.147 1.236,2.982 1.236,1.817 0.765,0.763 0,0 m -2.982,8.611 c -1.554,0 -2.96,-0.63 -3.98,-1.649 -1.017,-1.017 -1.647,-2.426 -1.647,-3.98 0,-1.553 0.63,-2.961 1.647,-3.979 1.02,-1.018 2.426,-1.649 3.98,-1.649 1.553,0 2.961,0.631 3.979,1.649 1.018,1.018 1.648,2.426 1.648,3.979 0,1.554 -0.63,2.963 -1.648,3.98 -1.018,1.019 -2.426,1.649 -3.979,1.649"
             style="fill:#ffffff;fill-opacity:1;fill-rule:nonzero;stroke:none"
             id="path26"
             inkscape:connector-curvature="0" /></g></g></g></g></svg>