<?xml version="1.0" encoding="UTF-8" standalone="no"?>
<!-- Created with Inkscape (http://www.inkscape.org/) -->

<svg
   xmlns:dc="http://purl.org/dc/elements/1.1/"
   xmlns:cc="http://creativecommons.org/ns#"
   xmlns:rdf="http://www.w3.org/1999/02/22-rdf-syntax-ns#"
   xmlns:svg="http://www.w3.org/2000/svg"
   xmlns="http://www.w3.org/2000/svg"
   xmlns:sodipodi="http://sodipodi.sourceforge.net/DTD/sodipodi-0.dtd"
   xmlns:inkscape="http://www.inkscape.org/namespaces/inkscape"
   id="svg2"
   version="1.1"
   inkscape:version="0.91 r13725"
   xml:space="preserve"
   width="33.598625"
   height="20.92775"
   viewBox="0 0 33.598625 20.92775"
   sodipodi:docname="icon2.svg"><metadata
     id="metadata8"><rdf:RDF><cc:Work
         rdf:about=""><dc:format>image/svg+xml</dc:format><dc:type
           rdf:resource="http://purl.org/dc/dcmitype/StillImage" /><dc:title></dc:title></cc:Work></rdf:RDF></metadata><defs
     id="defs6"><clipPath
       clipPathUnits="userSpaceOnUse"
       id="clipPath16"><path
         d="m 0,16.742 26.879,0 L 26.879,0 0,0 0,16.742 Z"
         id="path18"
         inkscape:connector-curvature="0" /></clipPath></defs><sodipodi:namedview
     pagecolor="#ffffff"
     bordercolor="#666666"
     borderopacity="1"
     objecttolerance="10"
     gridtolerance="10"
     guidetolerance="10"
     inkscape:pageopacity="0"
     inkscape:pageshadow="2"
     inkscape:window-width="640"
     inkscape:window-height="480"
     id="namedview4"
     showgrid="false"
     inkscape:zoom="11.276893"
     inkscape:cx="16.799313"
     inkscape:cy="10.463875"
     inkscape:window-x="0"
     inkscape:window-y="0"
     inkscape:window-maximized="0"
     inkscape:current-layer="g10" /><g
     id="g10"
     inkscape:groupmode="layer"
     inkscape:label="Vector Smart Object2"
     transform="matrix(1.25,0,0,-1.25,0,20.92775)"><g
       id="g12"><g
         id="g14"
         clip-path="url(#clipPath16)"><g
           id="g20"
           transform="translate(14.4044,7.4062)"><path
             d="m 0,0 c -0.246,-0.247 -0.587,-0.399 -0.966,-0.399 -0.376,0 -0.72,0.152 -0.965,0.397 -0.247,0.249 -0.399,0.59 -0.399,0.966 0,0.378 0.154,0.72 0.399,0.967 0.247,0.245 0.59,0.398 0.965,0.398 0.379,0 0.72,-0.153 0.966,-0.396 L 0.002,1.931 C 0.247,1.686 0.399,1.344 0.399,0.964 0.399,0.588 0.247,0.247 0,0 m 0.865,2.794 -0.001,0 -0.001,0.002 c -0.47,0.467 -1.115,0.756 -1.829,0.756 -0.714,0 -1.36,-0.289 -1.829,-0.756 -0.469,-0.47 -0.76,-1.117 -0.76,-1.832 0,-0.713 0.291,-1.359 0.76,-1.826 l 0.002,-0.002 c 0.469,-0.47 1.115,-0.759 1.827,-0.759 0.716,0 1.362,0.289 1.831,0.759 0.469,0.467 0.758,1.115 0.758,1.828 0,0.711 -0.288,1.355 -0.756,1.826 L 0.865,2.794 Z"
             style="fill:#ffffff;fill-opacity:1;fill-rule:nonzero;stroke:none"
             id="path22"
             inkscape:connector-curvature="0" /></g><g
           id="g24"
           transform="translate(19.757,3.1015)"><path
             d="m 0,0 c -2.023,-1.227 -4.141,-1.876 -6.318,-1.876 -2.176,0 -4.294,0.649 -6.319,1.876 -2.014,1.217 -3.936,2.999 -5.737,5.269 1.801,2.271 3.723,4.053 5.737,5.27 2.025,1.226 4.143,1.875 6.319,1.875 2.177,0 4.295,-0.649 6.318,-1.875 C 2.015,9.322 3.939,7.54 5.738,5.269 3.939,2.999 2.015,1.217 0,0 m 6.995,5.643 c -1.976,2.569 -4.11,4.581 -6.363,5.944 -2.215,1.338 -4.544,2.054 -6.95,2.054 -2.406,0 -4.734,-0.716 -6.949,-2.054 -2.25,-1.36 -4.381,-3.369 -6.355,-5.934 -0.173,-0.216 -0.184,-0.528 -0.009,-0.757 1.976,-2.568 4.11,-4.58 6.364,-5.944 2.215,-1.339 4.543,-2.054 6.949,-2.054 2.406,0 4.735,0.715 6.95,2.054 2.25,1.361 4.382,3.368 6.354,5.934 0.174,0.215 0.185,0.528 0.009,0.757"
             style="fill:#ffffff;fill-opacity:1;fill-rule:nonzero;stroke:none"
             id="path26"
             inkscape:connector-curvature="0" /></g><g
           id="g28"
           transform="translate(17.0343,4.7773)"><path
             d="M 0,0 C -0.919,-0.92 -2.191,-1.489 -3.596,-1.489 -5,-1.489 -6.27,-0.92 -7.188,0 c -0.921,0.919 -1.489,2.19 -1.489,3.593 0,1.403 0.568,2.676 1.489,3.594 C -6.27,8.107 -5,8.676 -3.596,8.676 -2.191,8.676 -0.919,8.107 0,7.187 0.918,6.269 1.488,4.996 1.488,3.593 1.488,2.19 0.918,0.919 0,0 M -3.596,9.9 C -5.337,9.9 -6.913,9.193 -8.055,8.052 -9.196,6.911 -9.901,5.336 -9.901,3.593 c 0,-1.741 0.705,-3.318 1.846,-4.458 1.142,-1.142 2.718,-1.848 4.459,-1.848 1.742,0 3.32,0.706 4.46,1.848 1.141,1.14 1.849,2.717 1.849,4.458 0,1.743 -0.708,3.318 -1.849,4.459 -1.14,1.141 -2.718,1.848 -4.46,1.848"
             style="fill:#ffffff;fill-opacity:1;fill-rule:nonzero;stroke:none"
             id="path30"
             inkscape:connector-curvature="0" /></g></g></g></g></svg>